<svg width="256" height="256" viewBox="0 0 256 256" fill="none" xmlns="http://www.w3.org/2000/svg">
<path d="M106.693 101.336C110.876 98.9502 116.165 100.287 118.73 104.298L118.97 104.694L173.144 199.665L219.725 105.174L219.939 104.764C222.258 100.605 227.457 98.9521 231.776 101.081C236.095 103.21 237.95 108.34 236.063 112.712L235.869 113.133L181.796 222.825L174.303 238.025L165.905 223.305L103.335 113.612L103.115 113.204C100.969 108.954 102.511 103.722 106.693 101.336ZM63.1933 30.2881C82.0542 19.12 104.403 15.3872 125.869 19.8193C147.336 24.2515 166.378 36.5302 179.273 54.2549C192.169 71.9795 197.99 93.8765 195.601 115.665C193.602 133.889 185.978 150.941 173.924 164.521C170 168.942 163.178 168.483 159.266 164.052C155.353 159.62 155.854 152.902 159.603 148.331C167.75 138.397 172.903 126.253 174.32 113.331C176.129 96.8391 171.723 80.2646 161.962 66.8486C152.201 53.4329 137.788 44.1398 121.54 40.7852C105.292 37.4306 88.3773 40.2559 74.1016 48.709C59.8257 57.1622 49.2153 70.6353 44.3447 86.4951C39.4741 102.355 40.6931 119.461 47.7637 134.47C54.8342 149.478 67.2478 161.311 82.5781 167.654C94.5902 172.624 107.717 173.944 120.345 171.577C126.155 170.488 132.287 173.279 134.291 178.84C136.295 184.401 133.418 190.604 127.654 191.919C109.951 195.959 91.3336 194.445 74.3935 187.436C54.1397 179.055 37.7389 163.423 28.3975 143.594C19.0561 123.765 17.4452 101.164 23.8799 80.2109C30.3147 59.2575 44.3327 41.4562 63.1933 30.2881Z" fill="white"/>
</svg>
